<svg id="visual" viewBox="0 0 960 540" width="960" height="540" xmlns="http://www.w3.org/2000/svg" xmlns:xlink="http://www.w3.org/1999/xlink" version="1.1"><path d="M0 66L8.5 57.8C17 49.7 34 33.3 50.8 27.8C67.7 22.3 84.3 27.7 101.2 34C118 40.3 135 47.7 151.8 46C168.7 44.3 185.3 33.7 202.2 31.8C219 30 236 37 252.8 37.8C269.7 38.7 286.3 33.3 303.2 31.5C320 29.7 337 31.3 353.8 35.8C370.7 40.3 387.3 47.7 404.2 50.5C421 53.3 438 51.7 454.8 49.8C471.7 48 488.3 46 505.2 49.5C522 53 539 62 555.8 58.5C572.7 55 589.3 39 606.2 34.5C623 30 640 37 656.8 37C673.7 37 690.3 30 707.2 31.8C724 33.7 741 44.3 757.8 48.8C774.7 53.3 791.3 51.7 808.2 51.7C825 51.7 842 53.3 858.8 51.5C875.7 49.7 892.3 44.3 909.2 45.2C926 46 943 53 951.5 56.5L960 60L960 0L951.5 0C943 0 926 0 909.2 0C892.3 0 875.7 0 858.8 0C842 0 825 0 808.2 0C791.3 0 774.7 0 757.8 0C741 0 724 0 707.2 0C690.3 0 673.7 0 656.8 0C640 0 623 0 606.2 0C589.3 0 572.7 0 555.8 0C539 0 522 0 505.2 0C488.3 0 471.7 0 454.8 0C438 0 421 0 404.2 0C387.3 0 370.7 0 353.8 0C337 0 320 0 303.2 0C286.3 0 269.7 0 252.8 0C236 0 219 0 202.2 0C185.3 0 168.7 0 151.8 0C135 0 118 0 101.2 0C84.3 0 67.7 0 50.8 0C34 0 17 0 8.5 0L0 0Z" fill="#001b98"></path><path d="M0 131L8.5 130C17 129 34 127 50.8 134.2C67.7 141.3 84.3 157.7 101.2 158.7C118 159.7 135 145.3 151.8 139C168.7 132.7 185.3 134.3 202.2 137C219 139.7 236 143.3 252.8 157.7C269.7 172 286.3 197 303.2 215C320 233 337 244 353.8 251.3C370.7 258.7 387.3 262.3 404.2 245.2C421 228 438 190 454.8 173.7C471.7 157.3 488.3 162.7 505.2 179.8C522 197 539 226 555.8 213.5C572.7 201 589.3 147 606.2 142.5C623 138 640 183 656.8 188.3C673.7 193.7 690.3 159.3 707.2 144.8C724 130.3 741 135.7 757.8 138.3C774.7 141 791.3 141 808.2 141C825 141 842 141 858.8 155.5C875.7 170 892.3 199 909.2 200C926 201 943 174 951.5 160.5L960 147L960 58L951.5 54.5C943 51 926 44 909.2 43.2C892.3 42.3 875.7 47.7 858.8 49.5C842 51.3 825 49.7 808.2 49.7C791.3 49.7 774.7 51.3 757.8 46.8C741 42.3 724 31.7 707.2 29.8C690.3 28 673.7 35 656.8 35C640 35 623 28 606.2 32.5C589.3 37 572.7 53 555.8 56.5C539 60 522 51 505.2 47.5C488.3 44 471.7 46 454.8 47.8C438 49.7 421 51.3 404.2 48.5C387.3 45.7 370.7 38.3 353.8 33.8C337 29.3 320 27.7 303.2 29.5C286.3 31.3 269.7 36.7 252.8 35.8C236 35 219 28 202.2 29.8C185.3 31.7 168.7 42.3 151.8 44C135 45.7 118 38.3 101.2 32C84.3 25.7 67.7 20.3 50.8 25.8C34 31.3 17 47.7 8.5 55.8L0 64Z" fill="#0528a8"></path><path d="M0 212L8.5 202C17 192 34 172 50.8 176.5C67.7 181 84.3 210 101.2 216.3C118 222.7 135 206.3 151.8 195.5C168.7 184.7 185.3 179.3 202.2 176.7C219 174 236 174 252.8 190.2C269.7 206.3 286.3 238.7 303.2 261.2C320 283.7 337 296.3 353.8 298.2C370.7 300 387.3 291 404.2 271.2C421 251.3 438 220.7 454.8 211.7C471.7 202.7 488.3 215.3 505.2 239.7C522 264 539 300 555.8 283.8C572.7 267.7 589.3 199.3 606.2 193C623 186.7 640 242.3 656.8 255.8C673.7 269.3 690.3 240.7 707.2 219C724 197.3 741 182.7 757.8 179C774.7 175.3 791.3 182.7 808.2 182.7C825 182.7 842 175.3 858.8 189.7C875.7 204 892.3 240 909.2 241C926 242 943 208 951.5 191L960 174L960 145L951.5 158.5C943 172 926 199 909.2 198C892.3 197 875.7 168 858.8 153.5C842 139 825 139 808.2 139C791.3 139 774.7 139 757.8 136.3C741 133.7 724 128.3 707.2 142.8C690.3 157.3 673.7 191.7 656.8 186.3C640 181 623 136 606.2 140.5C589.3 145 572.7 199 555.8 211.5C539 224 522 195 505.2 177.8C488.3 160.7 471.7 155.3 454.8 171.7C438 188 421 226 404.2 243.2C387.3 260.3 370.7 256.7 353.8 249.3C337 242 320 231 303.2 213C286.3 195 269.7 170 252.8 155.7C236 141.3 219 137.7 202.2 135C185.3 132.3 168.7 130.7 151.8 137C135 143.3 118 157.7 101.2 156.7C84.3 155.7 67.7 139.3 50.8 132.2C34 125 17 127 8.5 128L0 129Z" fill="#0a34b9"></path><path d="M0 255L8.5 246.8C17 238.7 34 222.3 50.8 225C67.7 227.7 84.3 249.3 101.2 253C118 256.7 135 242.3 151.8 229.7C168.7 217 185.3 206 202.2 201.5C219 197 236 199 252.8 220.7C269.7 242.3 286.3 283.7 303.2 306.2C320 328.7 337 332.3 353.8 336C370.7 339.7 387.3 343.3 404.2 324.3C421 305.3 438 263.7 454.8 251.8C471.7 240 488.3 258 505.2 282.3C522 306.7 539 337.3 555.8 322.2C572.7 307 589.3 246 606.2 238.8C623 231.7 640 278.3 656.8 288.2C673.7 298 690.3 271 707.2 252.2C724 233.3 741 222.7 757.8 223.5C774.7 224.3 791.3 236.7 808.2 239.3C825 242 842 235 858.8 243.2C875.7 251.3 892.3 274.7 909.2 275.5C926 276.3 943 254.7 951.5 243.8L960 233L960 172L951.5 189C943 206 926 240 909.2 239C892.3 238 875.7 202 858.8 187.7C842 173.3 825 180.7 808.2 180.7C791.3 180.7 774.7 173.3 757.8 177C741 180.7 724 195.3 707.2 217C690.3 238.7 673.7 267.3 656.8 253.8C640 240.3 623 184.7 606.2 191C589.3 197.3 572.7 265.7 555.8 281.8C539 298 522 262 505.2 237.7C488.3 213.3 471.7 200.7 454.8 209.7C438 218.7 421 249.3 404.2 269.2C387.3 289 370.7 298 353.8 296.2C337 294.3 320 281.7 303.2 259.2C286.3 236.7 269.7 204.3 252.8 188.2C236 172 219 172 202.2 174.7C185.3 177.3 168.7 182.7 151.8 193.5C135 204.3 118 220.7 101.2 214.3C84.3 208 67.7 179 50.8 174.5C34 170 17 190 8.5 200L0 210Z" fill="#0c40ca"></path><path d="M0 298L8.5 288.2C17 278.3 34 258.7 50.8 264C67.7 269.3 84.3 299.7 101.2 313.2C118 326.7 135 323.3 151.8 309C168.7 294.7 185.3 269.3 202.2 263C219 256.7 236 269.3 252.8 288.2C269.7 307 286.3 332 303.2 354.5C320 377 337 397 353.8 408.8C370.7 420.7 387.3 424.3 404.2 408.2C421 392 438 356 454.8 336.2C471.7 316.3 488.3 312.7 505.2 327.8C522 343 539 377 555.8 371.5C572.7 366 589.3 321 606.2 315.7C623 310.3 640 344.7 656.8 346.5C673.7 348.3 690.3 317.7 707.2 304.2C724 290.7 741 294.3 757.8 302.5C774.7 310.7 791.3 323.3 808.2 324.2C825 325 842 314 858.8 318.5C875.7 323 892.3 343 909.2 336.8C926 330.7 943 298.3 951.5 282.2L960 266L960 231L951.5 241.8C943 252.7 926 274.3 909.2 273.5C892.3 272.7 875.7 249.3 858.8 241.2C842 233 825 240 808.2 237.3C791.3 234.7 774.7 222.3 757.8 221.5C741 220.7 724 231.3 707.2 250.2C690.3 269 673.7 296 656.8 286.2C640 276.3 623 229.7 606.2 236.8C589.3 244 572.7 305 555.8 320.2C539 335.3 522 304.7 505.2 280.3C488.3 256 471.7 238 454.8 249.8C438 261.7 421 303.3 404.2 322.3C387.3 341.3 370.7 337.7 353.8 334C337 330.3 320 326.7 303.2 304.2C286.3 281.7 269.7 240.3 252.8 218.7C236 197 219 195 202.2 199.5C185.3 204 168.7 215 151.8 227.7C135 240.3 118 254.7 101.2 251C84.3 247.3 67.7 225.7 50.8 223C34 220.3 17 236.7 8.5 244.8L0 253Z" fill="#0c4cdb"></path><path d="M0 482L8.5 475.7C17 469.3 34 456.7 50.8 451.2C67.7 445.7 84.3 447.3 101.2 450.8C118 454.3 135 459.7 151.8 461.5C168.7 463.3 185.3 461.7 202.2 454.5C219 447.3 236 434.7 252.8 428.3C269.7 422 286.3 422 303.2 434.7C320 447.3 337 472.7 353.8 482.7C370.7 492.7 387.3 487.3 404.2 474.7C421 462 438 442 454.8 435.7C471.7 429.3 488.3 436.7 505.2 444.8C522 453 539 462 555.8 459.3C572.7 456.7 589.3 442.3 606.2 436.8C623 431.3 640 434.7 656.8 439.2C673.7 443.7 690.3 449.3 707.2 450.3C724 451.3 741 447.7 757.8 446.7C774.7 445.7 791.3 447.3 808.2 452.7C825 458 842 467 858.8 460.7C875.7 454.3 892.3 432.7 909.2 425.5C926 418.3 943 425.7 951.5 429.3L960 433L960 264L951.5 280.2C943 296.3 926 328.7 909.2 334.8C892.3 341 875.7 321 858.8 316.5C842 312 825 323 808.2 322.2C791.3 321.3 774.7 308.7 757.8 300.5C741 292.3 724 288.7 707.2 302.2C690.3 315.7 673.7 346.3 656.8 344.5C640 342.7 623 308.3 606.2 313.7C589.3 319 572.7 364 555.8 369.5C539 375 522 341 505.2 325.8C488.3 310.7 471.7 314.3 454.8 334.2C438 354 421 390 404.2 406.2C387.3 422.3 370.7 418.7 353.8 406.8C337 395 320 375 303.2 352.5C286.3 330 269.7 305 252.8 286.2C236 267.3 219 254.7 202.2 261C185.3 267.3 168.7 292.7 151.8 307C135 321.3 118 324.7 101.2 311.2C84.3 297.7 67.7 267.3 50.8 262C34 256.7 17 276.3 8.5 286.2L0 296Z" fill="#0859ed"></path><path d="M0 541L8.5 541C17 541 34 541 50.8 541C67.7 541 84.3 541 101.2 541C118 541 135 541 151.8 541C168.7 541 185.3 541 202.2 541C219 541 236 541 252.8 541C269.7 541 286.3 541 303.2 541C320 541 337 541 353.8 541C370.7 541 387.3 541 404.2 541C421 541 438 541 454.8 541C471.7 541 488.3 541 505.2 541C522 541 539 541 555.8 541C572.7 541 589.3 541 606.2 541C623 541 640 541 656.8 541C673.7 541 690.3 541 707.2 541C724 541 741 541 757.8 541C774.7 541 791.3 541 808.2 541C825 541 842 541 858.8 541C875.7 541 892.3 541 909.2 541C926 541 943 541 951.5 541L960 541L960 431L951.5 427.3C943 423.7 926 416.3 909.2 423.5C892.3 430.7 875.7 452.3 858.8 458.7C842 465 825 456 808.2 450.7C791.3 445.3 774.7 443.7 757.8 444.7C741 445.7 724 449.3 707.2 448.3C690.3 447.3 673.7 441.7 656.8 437.2C640 432.7 623 429.3 606.2 434.8C589.3 440.3 572.7 454.7 555.8 457.3C539 460 522 451 505.2 442.8C488.3 434.7 471.7 427.3 454.8 433.7C438 440 421 460 404.2 472.7C387.3 485.3 370.7 490.7 353.8 480.7C337 470.7 320 445.3 303.2 432.7C286.3 420 269.7 420 252.8 426.3C236 432.7 219 445.3 202.2 452.5C185.3 459.7 168.7 461.3 151.8 459.5C135 457.7 118 452.3 101.2 448.8C84.3 445.3 67.7 443.7 50.8 449.2C34 454.7 17 467.3 8.5 473.7L0 480Z" fill="#0066ff"></path></svg>